# xmcd CD database file
#
# Track frame offsets:
#	150
#	18464
#	53872
#	81230
#	98790
#	109770
#	128136
#	144619
#	169509
#	195499
#	215466
#
# Disc length: 3116 seconds
#
# Revision: 5
# Processed by: cddbd v1.5.2PL0 Copyright (c) Steve Scherf et al.
# Submitted via: CDex 1.51
#
DISCID=930c2a0b
DTITLE=Hubert Sumlin - I'm The Back Door Man
DYEAR=1993
DGENRE=Blues
TTITLE0=Hey Baby
TTITLE1=She Loved Me One Time
TTITLE2=I Got The Blues
TTITLE3=Look Don't Touch
TTITLE4=Killing Floor
TTITLE5=Little Red Rooster
TTITLE6=All I Want Is Your Love
TTITLE7=This Is For You
TTITLE8=Since I Was A Child
TTITLE9=I Did What I Could
TTITLE10=I Don't Want Nobody
EXTD=YEAR: 1993
EXTT0=
EXTT1=
EXTT2=
EXTT3=
EXTT4=
EXTT5=
EXTT6=
EXTT7=
EXTT8=
EXTT9=
EXTT10=
PLAYORDER=
